<mxfile host="app.diagrams.net" agent="Mozilla/5.0 (Windows NT 10.0; Win64; x64) AppleWebKit/537.36 (KHTML, like Gecko) Chrome/134.0.0.0 Safari/537.36" version="26.1.3">
  <diagram name="SKL1-2" id="ROXp-bQ9ljllLiogeC5t">
    <mxGraphModel dx="1379" dy="773" grid="1" gridSize="10" guides="1" tooltips="1" connect="1" arrows="1" fold="1" page="1" pageScale="1" pageWidth="850" pageHeight="1400" math="0" shadow="0">
      <root>
        <mxCell id="0" />
        <mxCell id="1" parent="0" />
        <mxCell id="8UII_rRdpZ6WwO5R7pjk-1" value="" style="rounded=0;whiteSpace=wrap;html=1;" parent="1" vertex="1">
          <mxGeometry x="750" y="520" width="60" height="120" as="geometry" />
        </mxCell>
        <mxCell id="8UII_rRdpZ6WwO5R7pjk-2" value="" style="rounded=0;whiteSpace=wrap;html=1;" parent="1" vertex="1">
          <mxGeometry x="750" y="360" width="60" height="120" as="geometry" />
        </mxCell>
        <mxCell id="8UII_rRdpZ6WwO5R7pjk-3" value="" style="edgeStyle=orthogonalEdgeStyle;rounded=0;orthogonalLoop=1;jettySize=auto;html=1;" parent="1" source="8UII_rRdpZ6WwO5R7pjk-5" target="8UII_rRdpZ6WwO5R7pjk-8" edge="1">
          <mxGeometry relative="1" as="geometry" />
        </mxCell>
        <mxCell id="8UII_rRdpZ6WwO5R7pjk-4" value="" style="edgeStyle=orthogonalEdgeStyle;rounded=0;orthogonalLoop=1;jettySize=auto;html=1;" parent="1" source="8UII_rRdpZ6WwO5R7pjk-5" target="8UII_rRdpZ6WwO5R7pjk-28" edge="1">
          <mxGeometry relative="1" as="geometry" />
        </mxCell>
        <mxCell id="8UII_rRdpZ6WwO5R7pjk-5" value="&lt;font style=&quot;font-size: 16px;&quot;&gt;Persiapan&lt;/font&gt;" style="ellipse;whiteSpace=wrap;html=1;" parent="1" vertex="1">
          <mxGeometry x="80" y="160" width="120" height="80" as="geometry" />
        </mxCell>
        <mxCell id="8UII_rRdpZ6WwO5R7pjk-6" value="" style="edgeStyle=orthogonalEdgeStyle;rounded=0;orthogonalLoop=1;jettySize=auto;html=1;" parent="1" source="8UII_rRdpZ6WwO5R7pjk-8" target="8UII_rRdpZ6WwO5R7pjk-11" edge="1">
          <mxGeometry relative="1" as="geometry" />
        </mxCell>
        <mxCell id="8UII_rRdpZ6WwO5R7pjk-7" value="" style="edgeStyle=orthogonalEdgeStyle;rounded=0;orthogonalLoop=1;jettySize=auto;html=1;" parent="1" source="8UII_rRdpZ6WwO5R7pjk-8" target="8UII_rRdpZ6WwO5R7pjk-29" edge="1">
          <mxGeometry relative="1" as="geometry" />
        </mxCell>
        <mxCell id="8UII_rRdpZ6WwO5R7pjk-8" value="&lt;font style=&quot;font-size: 16px;&quot;&gt;Mixer&lt;/font&gt;" style="ellipse;whiteSpace=wrap;html=1;" parent="1" vertex="1">
          <mxGeometry x="240" y="160" width="120" height="80" as="geometry" />
        </mxCell>
        <mxCell id="8UII_rRdpZ6WwO5R7pjk-9" value="" style="edgeStyle=orthogonalEdgeStyle;rounded=0;orthogonalLoop=1;jettySize=auto;html=1;" parent="1" source="8UII_rRdpZ6WwO5R7pjk-11" target="8UII_rRdpZ6WwO5R7pjk-14" edge="1">
          <mxGeometry relative="1" as="geometry" />
        </mxCell>
        <mxCell id="8UII_rRdpZ6WwO5R7pjk-10" value="" style="edgeStyle=orthogonalEdgeStyle;rounded=0;orthogonalLoop=1;jettySize=auto;html=1;" parent="1" source="8UII_rRdpZ6WwO5R7pjk-11" target="8UII_rRdpZ6WwO5R7pjk-30" edge="1">
          <mxGeometry relative="1" as="geometry" />
        </mxCell>
        <mxCell id="8UII_rRdpZ6WwO5R7pjk-11" value="&lt;font style=&quot;font-size: 16px;&quot;&gt;Steamer&lt;/font&gt;" style="ellipse;whiteSpace=wrap;html=1;" parent="1" vertex="1">
          <mxGeometry x="400" y="160" width="120" height="80" as="geometry" />
        </mxCell>
        <mxCell id="8UII_rRdpZ6WwO5R7pjk-12" value="" style="edgeStyle=orthogonalEdgeStyle;rounded=0;orthogonalLoop=1;jettySize=auto;html=1;" parent="1" source="8UII_rRdpZ6WwO5R7pjk-14" target="8UII_rRdpZ6WwO5R7pjk-17" edge="1">
          <mxGeometry relative="1" as="geometry" />
        </mxCell>
        <mxCell id="8UII_rRdpZ6WwO5R7pjk-13" value="" style="edgeStyle=orthogonalEdgeStyle;rounded=0;orthogonalLoop=1;jettySize=auto;html=1;" parent="1" source="8UII_rRdpZ6WwO5R7pjk-14" target="8UII_rRdpZ6WwO5R7pjk-31" edge="1">
          <mxGeometry relative="1" as="geometry" />
        </mxCell>
        <mxCell id="8UII_rRdpZ6WwO5R7pjk-14" value="&lt;font style=&quot;font-size: 16px;&quot;&gt;VDP&lt;/font&gt;" style="ellipse;whiteSpace=wrap;html=1;" parent="1" vertex="1">
          <mxGeometry x="560" y="160" width="120" height="80" as="geometry" />
        </mxCell>
        <mxCell id="8UII_rRdpZ6WwO5R7pjk-15" value="" style="edgeStyle=orthogonalEdgeStyle;rounded=0;orthogonalLoop=1;jettySize=auto;html=1;" parent="1" source="8UII_rRdpZ6WwO5R7pjk-17" target="8UII_rRdpZ6WwO5R7pjk-20" edge="1">
          <mxGeometry relative="1" as="geometry" />
        </mxCell>
        <mxCell id="8UII_rRdpZ6WwO5R7pjk-16" value="" style="edgeStyle=orthogonalEdgeStyle;rounded=0;orthogonalLoop=1;jettySize=auto;html=1;" parent="1" source="8UII_rRdpZ6WwO5R7pjk-17" target="8UII_rRdpZ6WwO5R7pjk-32" edge="1">
          <mxGeometry relative="1" as="geometry" />
        </mxCell>
        <mxCell id="8UII_rRdpZ6WwO5R7pjk-17" value="&lt;font style=&quot;font-size: 16px;&quot;&gt;Slicing&lt;/font&gt;" style="ellipse;whiteSpace=wrap;html=1;" parent="1" vertex="1">
          <mxGeometry x="720" y="160" width="120" height="80" as="geometry" />
        </mxCell>
        <mxCell id="8UII_rRdpZ6WwO5R7pjk-18" value="" style="edgeStyle=orthogonalEdgeStyle;rounded=0;orthogonalLoop=1;jettySize=auto;html=1;" parent="1" source="8UII_rRdpZ6WwO5R7pjk-20" target="8UII_rRdpZ6WwO5R7pjk-23" edge="1">
          <mxGeometry relative="1" as="geometry" />
        </mxCell>
        <mxCell id="8UII_rRdpZ6WwO5R7pjk-19" value="" style="edgeStyle=orthogonalEdgeStyle;rounded=0;orthogonalLoop=1;jettySize=auto;html=1;" parent="1" source="8UII_rRdpZ6WwO5R7pjk-20" target="8UII_rRdpZ6WwO5R7pjk-33" edge="1">
          <mxGeometry relative="1" as="geometry" />
        </mxCell>
        <mxCell id="8UII_rRdpZ6WwO5R7pjk-20" value="&lt;font style=&quot;font-size: 16px;&quot;&gt;Dryer&lt;/font&gt;" style="ellipse;whiteSpace=wrap;html=1;" parent="1" vertex="1">
          <mxGeometry x="880" y="160" width="120" height="80" as="geometry" />
        </mxCell>
        <mxCell id="8UII_rRdpZ6WwO5R7pjk-21" value="" style="edgeStyle=orthogonalEdgeStyle;rounded=0;orthogonalLoop=1;jettySize=auto;html=1;" parent="1" source="8UII_rRdpZ6WwO5R7pjk-23" target="8UII_rRdpZ6WwO5R7pjk-27" edge="1">
          <mxGeometry relative="1" as="geometry" />
        </mxCell>
        <mxCell id="8UII_rRdpZ6WwO5R7pjk-22" value="" style="edgeStyle=orthogonalEdgeStyle;rounded=0;orthogonalLoop=1;jettySize=auto;html=1;" parent="1" source="8UII_rRdpZ6WwO5R7pjk-23" target="8UII_rRdpZ6WwO5R7pjk-34" edge="1">
          <mxGeometry relative="1" as="geometry" />
        </mxCell>
        <mxCell id="8UII_rRdpZ6WwO5R7pjk-23" value="&lt;font style=&quot;font-size: 16px;&quot;&gt;Sortir&lt;/font&gt;" style="ellipse;whiteSpace=wrap;html=1;" parent="1" vertex="1">
          <mxGeometry x="880" y="280" width="120" height="80" as="geometry" />
        </mxCell>
        <mxCell id="8UII_rRdpZ6WwO5R7pjk-24" value="" style="edgeStyle=orthogonalEdgeStyle;rounded=0;orthogonalLoop=1;jettySize=auto;html=1;" parent="1" source="8UII_rRdpZ6WwO5R7pjk-27" target="8UII_rRdpZ6WwO5R7pjk-35" edge="1">
          <mxGeometry relative="1" as="geometry" />
        </mxCell>
        <mxCell id="8UII_rRdpZ6WwO5R7pjk-25" style="rounded=0;orthogonalLoop=1;jettySize=auto;html=1;exitX=0;exitY=0.5;exitDx=0;exitDy=0;entryX=1;entryY=0.5;entryDx=0;entryDy=0;strokeColor=default;" parent="1" source="8UII_rRdpZ6WwO5R7pjk-27" target="8UII_rRdpZ6WwO5R7pjk-40" edge="1">
          <mxGeometry relative="1" as="geometry" />
        </mxCell>
        <mxCell id="8UII_rRdpZ6WwO5R7pjk-26" style="rounded=0;orthogonalLoop=1;jettySize=auto;html=1;exitX=0;exitY=0.5;exitDx=0;exitDy=0;entryX=1;entryY=0.5;entryDx=0;entryDy=0;" parent="1" source="8UII_rRdpZ6WwO5R7pjk-27" target="8UII_rRdpZ6WwO5R7pjk-41" edge="1">
          <mxGeometry relative="1" as="geometry" />
        </mxCell>
        <mxCell id="8UII_rRdpZ6WwO5R7pjk-27" value="&lt;font style=&quot;font-size: 16px;&quot;&gt;Packing&lt;/font&gt;" style="ellipse;whiteSpace=wrap;html=1;" parent="1" vertex="1">
          <mxGeometry x="880" y="460" width="120" height="80" as="geometry" />
        </mxCell>
        <mxCell id="8UII_rRdpZ6WwO5R7pjk-28" value="&lt;font style=&quot;font-size: 16px;&quot;&gt;PC&lt;/font&gt;" style="ellipse;whiteSpace=wrap;html=1;aspect=fixed;" parent="1" vertex="1">
          <mxGeometry x="120" y="280" width="40" height="40" as="geometry" />
        </mxCell>
        <mxCell id="8UII_rRdpZ6WwO5R7pjk-29" value="&lt;font style=&quot;font-size: 16px;&quot;&gt;PC&lt;/font&gt;" style="text;html=1;align=center;verticalAlign=middle;whiteSpace=wrap;rounded=0;" parent="1" vertex="1">
          <mxGeometry x="270" y="285" width="60" height="30" as="geometry" />
        </mxCell>
        <mxCell id="8UII_rRdpZ6WwO5R7pjk-30" value="&lt;font style=&quot;font-size: 16px;&quot;&gt;PC&lt;/font&gt;" style="text;html=1;align=center;verticalAlign=middle;whiteSpace=wrap;rounded=0;" parent="1" vertex="1">
          <mxGeometry x="430" y="285" width="60" height="30" as="geometry" />
        </mxCell>
        <mxCell id="8UII_rRdpZ6WwO5R7pjk-31" value="&lt;font style=&quot;font-size: 16px;&quot;&gt;PC&lt;/font&gt;" style="text;html=1;align=center;verticalAlign=middle;whiteSpace=wrap;rounded=0;" parent="1" vertex="1">
          <mxGeometry x="590" y="285" width="60" height="30" as="geometry" />
        </mxCell>
        <mxCell id="8UII_rRdpZ6WwO5R7pjk-32" value="&lt;font style=&quot;font-size: 16px;&quot;&gt;PC&lt;/font&gt;" style="text;html=1;align=center;verticalAlign=middle;whiteSpace=wrap;rounded=0;" parent="1" vertex="1">
          <mxGeometry x="750" y="285" width="60" height="30" as="geometry" />
        </mxCell>
        <mxCell id="8UII_rRdpZ6WwO5R7pjk-33" value="&lt;font style=&quot;font-size: 16px;&quot;&gt;PC&lt;/font&gt;" style="text;html=1;align=center;verticalAlign=middle;whiteSpace=wrap;rounded=0;" parent="1" vertex="1">
          <mxGeometry x="1040" y="185" width="60" height="30" as="geometry" />
        </mxCell>
        <mxCell id="8UII_rRdpZ6WwO5R7pjk-34" value="&lt;font style=&quot;font-size: 16px;&quot;&gt;PC&lt;/font&gt;" style="text;html=1;align=center;verticalAlign=middle;whiteSpace=wrap;rounded=0;" parent="1" vertex="1">
          <mxGeometry x="1040" y="305" width="60" height="30" as="geometry" />
        </mxCell>
        <mxCell id="8UII_rRdpZ6WwO5R7pjk-35" value="&lt;font style=&quot;font-size: 16px;&quot;&gt;PC&lt;/font&gt;" style="text;html=1;align=center;verticalAlign=middle;whiteSpace=wrap;rounded=0;" parent="1" vertex="1">
          <mxGeometry x="1040" y="485" width="60" height="30" as="geometry" />
        </mxCell>
        <mxCell id="8UII_rRdpZ6WwO5R7pjk-36" style="edgeStyle=orthogonalEdgeStyle;rounded=0;orthogonalLoop=1;jettySize=auto;html=1;exitX=0.5;exitY=1;exitDx=0;exitDy=0;entryX=0.5;entryY=0;entryDx=0;entryDy=0;endArrow=none;startFill=0;" parent="1" source="8UII_rRdpZ6WwO5R7pjk-37" target="8UII_rRdpZ6WwO5R7pjk-40" edge="1">
          <mxGeometry relative="1" as="geometry" />
        </mxCell>
        <mxCell id="8UII_rRdpZ6WwO5R7pjk-37" value="&lt;font style=&quot;font-size: 16px;&quot;&gt;PC&lt;/font&gt;" style="text;html=1;align=center;verticalAlign=middle;whiteSpace=wrap;rounded=0;" parent="1" vertex="1">
          <mxGeometry x="750" y="380" width="60" height="30" as="geometry" />
        </mxCell>
        <mxCell id="8UII_rRdpZ6WwO5R7pjk-38" style="edgeStyle=orthogonalEdgeStyle;rounded=0;orthogonalLoop=1;jettySize=auto;html=1;exitX=0.5;exitY=0;exitDx=0;exitDy=0;entryX=0.5;entryY=1;entryDx=0;entryDy=0;endArrow=none;startFill=0;" parent="1" source="8UII_rRdpZ6WwO5R7pjk-39" target="8UII_rRdpZ6WwO5R7pjk-41" edge="1">
          <mxGeometry relative="1" as="geometry" />
        </mxCell>
        <mxCell id="8UII_rRdpZ6WwO5R7pjk-39" value="&lt;font style=&quot;font-size: 16px;&quot;&gt;PC&lt;/font&gt;" style="text;html=1;align=center;verticalAlign=middle;whiteSpace=wrap;rounded=0;" parent="1" vertex="1">
          <mxGeometry x="750" y="590" width="60" height="30" as="geometry" />
        </mxCell>
        <mxCell id="8UII_rRdpZ6WwO5R7pjk-40" value="&lt;font style=&quot;font-size: 16px;&quot;&gt;WP&lt;/font&gt;" style="ellipse;whiteSpace=wrap;html=1;aspect=fixed;" parent="1" vertex="1">
          <mxGeometry x="760" y="420" width="40" height="40" as="geometry" />
        </mxCell>
        <mxCell id="8UII_rRdpZ6WwO5R7pjk-41" value="&lt;font style=&quot;font-size: 16px;&quot;&gt;FG&lt;/font&gt;" style="ellipse;whiteSpace=wrap;html=1;aspect=fixed;" parent="1" vertex="1">
          <mxGeometry x="760" y="540" width="40" height="40" as="geometry" />
        </mxCell>
        <mxCell id="lUuPGO5yFOHx5FnvODUG-1" value="Layout Process SKL 1 - 2" style="text;strokeColor=none;fillColor=none;html=1;fontSize=24;fontStyle=1;verticalAlign=middle;align=center;" parent="1" vertex="1">
          <mxGeometry x="40" y="40" width="320" height="40" as="geometry" />
        </mxCell>
      </root>
    </mxGraphModel>
  </diagram>
</mxfile>
